<svg id="Layer_1" data-name="Layer 1" xmlns="http://www.w3.org/2000/svg" viewBox="0 0 24 24" width="16px" height="16px"><defs><style>.cls-1{fill:none;stroke:#72C3E7;stroke-linecap:round;stroke-linejoin:round;stroke-width:1.5px;}</style></defs><path class="cls-1" d="M9.25,19.51c-5,1.5-5-2.5-7-3m14,6V18.64A3.38,3.38,0,0,0,15.31,16c3.14-.35,6.44-1.54,6.44-7a5.46,5.46,0,0,0-1.5-3.75,5.07,5.07,0,0,0-.09-3.77S19,1.16,16.25,3a13.4,13.4,0,0,0-7,0C6.52,1.16,5.34,1.51,5.34,1.51a5.07,5.07,0,0,0-.09,3.77,5.44,5.44,0,0,0-1.5,3.78c0,5.42,3.3,6.61,6.44,7a3.35,3.35,0,0,0-.94,2.58v3.87"/></svg>