<svg data-name="Layer 1" xmlns="http://www.w3.org/2000/svg" viewBox="0 0 24 24" width="16" height="16"><path d="M9.25 19.51c-5 1.5-5-2.5-7-3m14 6v-3.87a3.38 3.38 0 00-.94-2.64c3.14-.35 6.44-1.54 6.44-7a5.46 5.46 0 00-1.5-3.75 5.07 5.07 0 00-.09-3.77S19 1.16 16.25 3a13.4 13.4 0 00-7 0C6.52 1.16 5.34 1.51 5.34 1.51a5.07 5.07 0 00-.09 3.77 5.44 5.44 0 00-1.5 3.78c0 5.42 3.3 6.61 6.44 7a3.35 3.35 0 00-.94 2.58v3.87" fill="none" stroke="#72c3e7" stroke-linecap="round" stroke-linejoin="round" stroke-width="1.5"/></svg>