<svg data-name="Layer 1" id="Layer_1" viewBox="0 0 128 128" width="16" height="16" xmlns="http://www.w3.org/2000/svg"><defs><style>.cls-1{fill:none;stroke:#72c3e7;stroke-linecap:round;stroke-linejoin:round;stroke-width:1.5px}</style></defs><path class="cls-1" d="M83 23a22 22 0 0122 22v38a22 22 0 01-22 22H45a22 22 0 01-22-22V45a22 22 0 0122-22h38m0-8H45a30.09 30.09 0 00-30 30v38a30.09 30.09 0 0030 30h38a30.09 30.09 0 0030-30V45a30.09 30.09 0 00-30-30z"/><path class="cls-1" d="M90.14 32a5.73 5.73 0 105.73 5.73A5.73 5.73 0 0090.14 32zM64.27 46.47A17.68 17.68 0 1146.6 64.14a17.7 17.7 0 0117.67-17.67m0-8A25.68 25.68 0 1090 64.14a25.68 25.68 0 00-25.73-25.67z"/></svg>